<svg width="25" height="25" viewBox="0 0 25 25" fill="none" xmlns="http://www.w3.org/2000/svg">
<path d="M12.7551 10.7135V15H19.9894C19.6971 16.8385 17.804 20.3896 12.7551 20.3896C8.40242 20.3896 4.848 16.8594 4.848 12.5C4.848 8.14062 8.40349 4.61042 12.7551 4.61042C15.2317 4.61042 16.8909 5.64062 17.8412 6.53646L21.3 3.26771C19.0784 1.23542 16.1979 0 12.7551 0C5.70259 0 0 5.58854 0 12.5C0 19.4115 5.70259 25 12.7551 25C20.1169 25 25 19.9281 25 12.7854C25 11.9646 24.9096 11.3375 24.7991 10.7135H12.7551Z" fill="black"/>
</svg>
